<!-- Generated by IcoMoon.io -->
<svg version="1.1" xmlns="http://www.w3.org/2000/svg" width="1109" height="1024" viewBox="0 0 1109 1024">
<title></title>
<g id="icomoon-ignore">
</g>
<path d="M240.601 554.693h515.938l-225.398 208.384c-8.303 7.486-13.5 18.279-13.5 30.287s5.197 22.801 13.464 30.255l0.036 0.032c8.592 7.748 20.028 12.488 32.571 12.488s23.979-4.74 32.614-12.527l-0.043 0.038 304.404-281.167c8.309-7.407 13.516-18.14 13.516-30.090s-5.207-22.683-13.476-30.055l-0.040-0.035-303.931-281.758c-8.592-7.748-20.028-12.488-32.571-12.488s-23.979 4.74-32.614 12.527l0.043-0.038c-8.309 7.407-13.516 18.14-13.516 30.090s5.207 22.683 13.476 30.055l0.040 0.035 224.965 208.738h-515.978c-0.473-0.018-1.028-0.028-1.585-0.028-23.928 0-43.461 18.817-44.609 42.461l-0.004 0.103c1.068 23.817 20.637 42.721 44.62 42.721 0.555 0 1.108-0.010 1.658-0.030l-0.080 0.002z"></path>
</svg>
