<!-- Generated by IcoMoon.io -->
<svg version="1.1" xmlns="http://www.w3.org/2000/svg" width="1024" height="1024" viewBox="0 0 1024 1024">
<title></title>
<g id="icomoon-ignore">
</g>
<path d="M282.070 885.954c-38.237-1.218-68.77-32.507-68.77-70.927 0-0.644 0.009-1.287 0.026-1.927l-0.002 0.095v-655.111c-0.016-0.562-0.025-1.223-0.025-1.886 0-38.409 30.54-69.686 68.663-70.87l0.109-0.003h357.93l192.014 203.278v524.592c0.016 0.562 0.025 1.224 0.025 1.888 0 38.421-30.534 69.71-68.66 70.924l-0.112 0.003zM282.070 813.139h481.169v-436.667h-137.548c-38.177-1.215-68.664-32.455-68.664-70.816 0-0.703 0.010-1.403 0.031-2.101l-0.002 0.103v-145.574h-274.986zM625.692 303.658h123.212l-123.212-130.491zM360.863 584.15l48.626-51.449 78.793 83.442 147.567-156.202 48.626 51.449-196.221 207.706z"></path>
</svg>
