
<svg version="1.1" xmlns="http://www.w3.org/2000/svg" width="1024" height="1024" viewBox="0 0 1024 1024">
<title></title>
<g id="icomoon-ignore">
</g>
<path d="M775.666 247.865c-7.431 7.431-12.027 17.695-12.027 29.034 0 9.916 3.516 19.011 9.368 26.107l-0.056-0.070c46.133 56.092 74.103 128.638 74.103 207.718 0 28.966-3.752 57.054-10.798 83.807l0.512-2.287c-37.027 147.438-168.401 254.876-324.869 254.876-184.729 0-334.478-149.752-334.478-334.478 0-169.929 126.719-310.262 290.815-331.656l1.685-0.18v84.184c-119.088 20.813-208.454 123.426-208.454 246.912 0 138.325 112.135 250.46 250.46 250.46s250.46-112.135 250.46-250.46c0-52.393-16.088-101.030-43.593-141.238l0.554 0.859c-7.609-10.266-19.685-16.848-33.299-16.848-11.489 0-21.883 4.687-29.374 12.253l-0.41 0.41c-7.344 7.592-11.865 17.947-11.865 29.358 0 8.849 2.72 17.064 7.369 23.849l-0.093-0.144c17.374 25.97 27.729 57.917 27.729 92.281 0 92.462-74.955 167.417-167.417 167.417s-167.417-74.955-167.417-167.417c0-77.511 52.674-142.719 124.18-161.78l1.17-0.265v89.506c-25.173 14.5-41.847 41.261-41.847 71.915 0 0.017 0 0.034 0 0.051v-0.003c0 46.148 37.411 83.559 83.559 83.559s83.559-37.411 83.559-83.559v0c0-0.076 0-0.166 0-0.255 0-30.55-16.661-57.21-41.392-71.388l-0.401-0.212v-316.476c-0.152-16.28-13.298-29.433-29.557-29.6h-0.016c-3.582-0.11-7.796-0.173-12.024-0.173-230.892 0-418.067 187.175-418.067 418.067s187.175 418.067 418.067 418.067c199.389 0 366.175-139.582 407.977-326.361l0.524-2.787c6.338-27.058 9.97-58.127 9.97-90.044 0-98.736-34.768-189.352-92.729-260.271l0.584 0.737c-7.717-9.702-19.522-15.868-32.767-15.868-11.613 0-22.118 4.739-29.688 12.389l-0.004 0.004z"></path>
</svg>
