<svg id="icon_navigation_arrow_forward_24px-2" data-name="icon/navigation/arrow_forward_24px" xmlns="http://www.w3.org/2000/svg" xmlns:xlink="http://www.w3.org/1999/xlink" width="28.149" height="26" viewBox="0 0 28.149 26">
  <defs>
    <clipPath id="clip-path">
      <path id="icon_navigation_arrow_forward_24px" data-name="icon/navigation/arrow_forward_24px" d="M1.173,9.309h13.1L8.55,14.6a1.034,1.034,0,0,0,0,1.538,1.237,1.237,0,0,0,1.654,0l7.729-7.139a1.022,1.022,0,0,0,0-1.528L10.216.317a1.237,1.237,0,0,0-1.654,0,1.022,1.022,0,0,0,0,1.528l5.712,5.3H1.173A1.134,1.134,0,0,0,0,8.225,1.134,1.134,0,0,0,1.173,9.309Z" transform="translate(0 0)" fill="#37474f"/>
    </clipPath>
  </defs>
  <g id="Group_1" data-name="Group 1" transform="translate(4.936 4.775)">
    <path id="icon_navigation_arrow_forward_24px-3" data-name="icon/navigation/arrow_forward_24px" d="M1.173,9.309h13.1L8.55,14.6a1.034,1.034,0,0,0,0,1.538,1.237,1.237,0,0,0,1.654,0l7.729-7.139a1.022,1.022,0,0,0,0-1.528L10.216.317a1.237,1.237,0,0,0-1.654,0,1.022,1.022,0,0,0,0,1.528l5.712,5.3H1.173A1.134,1.134,0,0,0,0,8.225,1.134,1.134,0,0,0,1.173,9.309Z" transform="translate(0 0)" fill="#fff"/>
  </g>
</svg>
