<!-- Generated by IcoMoon.io -->
<svg version="1.1" xmlns="http://www.w3.org/2000/svg" width="1024" height="1024" viewBox="0 0 1024 1024">
<title></title>
<g id="icomoon-ignore">
</g>
<path d="M440.874 906.185v0l-248.86-0.028v-516.068l241-241c19.298-19.306 45.963-31.247 75.416-31.247s56.118 11.941 75.416 31.247l248.168 248.279v508.734h-248.915v-213.269c-0.787-38.674-32.324-69.724-71.113-69.724s-70.326 31.050-71.111 69.65l-0.001 0.073v213.352zM512 550.608c78.499 0.11 142.103 63.724 142.198 142.216v142.207h106.662v-408.355l-227.273-227.328c-6.428-6.439-15.314-10.422-25.13-10.422s-18.702 3.983-25.129 10.421v0l-220.188 220.16v415.523h106.662v-142.198c0.079-78.508 63.692-142.131 142.189-142.225h0.009z"></path>
</svg>
